<mxfile host="app.diagrams.net" modified="2023-05-15T12:34:47.668Z" agent="Mozilla/5.0 (Windows NT 10.0; Win64; x64) AppleWebKit/537.36 (KHTML, like Gecko) Chrome/113.0.0.0 Safari/537.36" etag="MSh4b_J2JWaL3ajXSAWz" version="21.3.0" type="github">
  <diagram id="C5RBs43oDa-KdzZeNtuy" name="Page-1">
    <mxGraphModel dx="2327" dy="747" grid="1" gridSize="10" guides="1" tooltips="1" connect="1" arrows="1" fold="1" page="1" pageScale="1" pageWidth="827" pageHeight="1169" math="0" shadow="0">
      <root>
        <mxCell id="WIyWlLk6GJQsqaUBKTNV-0" />
        <mxCell id="WIyWlLk6GJQsqaUBKTNV-1" parent="WIyWlLk6GJQsqaUBKTNV-0" />
        <mxCell id="WIyWlLk6GJQsqaUBKTNV-2" value="" style="rounded=0;html=1;jettySize=auto;orthogonalLoop=1;fontSize=11;endArrow=block;endFill=0;endSize=8;strokeWidth=1;shadow=0;labelBackgroundColor=none;edgeStyle=orthogonalEdgeStyle;" parent="WIyWlLk6GJQsqaUBKTNV-1" source="WIyWlLk6GJQsqaUBKTNV-3" target="WIyWlLk6GJQsqaUBKTNV-6" edge="1">
          <mxGeometry relative="1" as="geometry" />
        </mxCell>
        <mxCell id="WIyWlLk6GJQsqaUBKTNV-3" value="Start" style="rounded=1;whiteSpace=wrap;html=1;fontSize=12;glass=0;strokeWidth=1;shadow=0;fillColor=#d5e8d4;strokeColor=#82b366;" parent="WIyWlLk6GJQsqaUBKTNV-1" vertex="1">
          <mxGeometry x="160" y="90" width="120" height="40" as="geometry" />
        </mxCell>
        <mxCell id="WIyWlLk6GJQsqaUBKTNV-5" value="If Not Entered" style="edgeStyle=orthogonalEdgeStyle;rounded=0;html=1;jettySize=auto;orthogonalLoop=1;fontSize=11;endArrow=block;endFill=0;endSize=8;strokeWidth=1;shadow=0;labelBackgroundColor=none;entryX=0;entryY=0.5;entryDx=0;entryDy=0;" parent="WIyWlLk6GJQsqaUBKTNV-1" source="WIyWlLk6GJQsqaUBKTNV-6" target="6czhflSClIlCwqd6-uIO-5" edge="1">
          <mxGeometry y="10" relative="1" as="geometry">
            <mxPoint as="offset" />
            <mxPoint x="370" y="210" as="targetPoint" />
          </mxGeometry>
        </mxCell>
        <mxCell id="WIyWlLk6GJQsqaUBKTNV-6" value="Enter&lt;br&gt;UI&lt;br&gt;Name" style="rhombus;whiteSpace=wrap;html=1;shadow=0;fontFamily=Helvetica;fontSize=12;align=center;strokeWidth=1;spacing=6;spacingTop=-4;fillColor=#fff2cc;strokeColor=#d6b656;" parent="WIyWlLk6GJQsqaUBKTNV-1" vertex="1">
          <mxGeometry x="170" y="170" width="100" height="80" as="geometry" />
        </mxCell>
        <mxCell id="6czhflSClIlCwqd6-uIO-0" value="" style="endArrow=classic;html=1;rounded=0;exitX=0.5;exitY=1;exitDx=0;exitDy=0;entryX=0.5;entryY=0;entryDx=0;entryDy=0;" parent="WIyWlLk6GJQsqaUBKTNV-1" source="WIyWlLk6GJQsqaUBKTNV-6" target="6czhflSClIlCwqd6-uIO-2" edge="1">
          <mxGeometry width="50" height="50" relative="1" as="geometry">
            <mxPoint x="190" y="400" as="sourcePoint" />
            <mxPoint x="220" y="300" as="targetPoint" />
          </mxGeometry>
        </mxCell>
        <mxCell id="6czhflSClIlCwqd6-uIO-1" value="If Entered" style="text;html=1;align=center;verticalAlign=middle;resizable=0;points=[];autosize=1;strokeColor=none;fillColor=none;" parent="WIyWlLk6GJQsqaUBKTNV-1" vertex="1">
          <mxGeometry x="210" y="250" width="80" height="30" as="geometry" />
        </mxCell>
        <mxCell id="6czhflSClIlCwqd6-uIO-4" value="" style="edgeStyle=orthogonalEdgeStyle;rounded=0;orthogonalLoop=1;jettySize=auto;html=1;" parent="WIyWlLk6GJQsqaUBKTNV-1" source="6czhflSClIlCwqd6-uIO-2" target="6czhflSClIlCwqd6-uIO-3" edge="1">
          <mxGeometry relative="1" as="geometry" />
        </mxCell>
        <mxCell id="6czhflSClIlCwqd6-uIO-9" value="" style="edgeStyle=orthogonalEdgeStyle;rounded=0;orthogonalLoop=1;jettySize=auto;html=1;entryX=0.5;entryY=0;entryDx=0;entryDy=0;" parent="WIyWlLk6GJQsqaUBKTNV-1" source="6czhflSClIlCwqd6-uIO-2" target="syk1W0FhU0-OYzwC-ugc-1" edge="1">
          <mxGeometry relative="1" as="geometry">
            <mxPoint x="220" y="430" as="targetPoint" />
          </mxGeometry>
        </mxCell>
        <mxCell id="6czhflSClIlCwqd6-uIO-2" value="Enter &lt;br&gt;Entity&#39;s&lt;br&gt;label" style="rhombus;whiteSpace=wrap;html=1;fillColor=#fff2cc;strokeColor=#d6b656;" parent="WIyWlLk6GJQsqaUBKTNV-1" vertex="1">
          <mxGeometry x="180" y="290" width="80" height="80" as="geometry" />
        </mxCell>
        <mxCell id="6czhflSClIlCwqd6-uIO-3" value="Alert for empty field" style="whiteSpace=wrap;html=1;fillColor=#f8cecc;strokeColor=#b85450;" parent="WIyWlLk6GJQsqaUBKTNV-1" vertex="1">
          <mxGeometry x="370" y="312.5" width="120" height="35" as="geometry" />
        </mxCell>
        <mxCell id="6czhflSClIlCwqd6-uIO-5" value="Alert for empty field" style="rounded=0;whiteSpace=wrap;html=1;fillColor=#f8cecc;strokeColor=#b85450;" parent="WIyWlLk6GJQsqaUBKTNV-1" vertex="1">
          <mxGeometry x="370" y="192.5" width="120" height="35" as="geometry" />
        </mxCell>
        <mxCell id="6czhflSClIlCwqd6-uIO-6" value="If Not Entered" style="text;html=1;align=center;verticalAlign=middle;resizable=0;points=[];autosize=1;strokeColor=none;fillColor=none;" parent="WIyWlLk6GJQsqaUBKTNV-1" vertex="1">
          <mxGeometry x="262.5" y="300" width="100" height="30" as="geometry" />
        </mxCell>
        <mxCell id="6czhflSClIlCwqd6-uIO-7" value="&lt;font style=&quot;font-size: 9px;&quot;&gt;By Default , there will &lt;br&gt;be one column&amp;nbsp;&lt;/font&gt;" style="text;html=1;align=center;verticalAlign=middle;resizable=0;points=[];autosize=1;strokeColor=none;fillColor=none;" parent="WIyWlLk6GJQsqaUBKTNV-1" vertex="1">
          <mxGeometry x="20" y="312.5" width="110" height="40" as="geometry" />
        </mxCell>
        <mxCell id="6czhflSClIlCwqd6-uIO-15" value="" style="edgeStyle=orthogonalEdgeStyle;rounded=0;orthogonalLoop=1;jettySize=auto;html=1;entryX=0.5;entryY=0;entryDx=0;entryDy=0;exitX=0.5;exitY=1;exitDx=0;exitDy=0;" parent="WIyWlLk6GJQsqaUBKTNV-1" source="syk1W0FhU0-OYzwC-ugc-1" target="6czhflSClIlCwqd6-uIO-17" edge="1">
          <mxGeometry relative="1" as="geometry">
            <mxPoint x="220" y="560" as="targetPoint" />
            <mxPoint x="220" y="490" as="sourcePoint" />
          </mxGeometry>
        </mxCell>
        <mxCell id="6czhflSClIlCwqd6-uIO-10" value="If Entered" style="text;html=1;align=center;verticalAlign=middle;resizable=0;points=[];autosize=1;strokeColor=none;fillColor=none;" parent="WIyWlLk6GJQsqaUBKTNV-1" vertex="1">
          <mxGeometry x="210" y="370" width="80" height="30" as="geometry" />
        </mxCell>
        <mxCell id="6czhflSClIlCwqd6-uIO-16" value="Different datatype" style="text;html=1;align=center;verticalAlign=middle;resizable=0;points=[];autosize=1;strokeColor=none;fillColor=none;" parent="WIyWlLk6GJQsqaUBKTNV-1" vertex="1">
          <mxGeometry x="220" y="521.25" width="120" height="30" as="geometry" />
        </mxCell>
        <mxCell id="6czhflSClIlCwqd6-uIO-24" value="" style="edgeStyle=orthogonalEdgeStyle;rounded=0;orthogonalLoop=1;jettySize=auto;html=1;" parent="WIyWlLk6GJQsqaUBKTNV-1" source="6czhflSClIlCwqd6-uIO-17" target="6czhflSClIlCwqd6-uIO-23" edge="1">
          <mxGeometry relative="1" as="geometry" />
        </mxCell>
        <mxCell id="6czhflSClIlCwqd6-uIO-17" value="Add more&lt;br&gt;Entity" style="rhombus;whiteSpace=wrap;html=1;fillColor=#fff2cc;strokeColor=#d6b656;" parent="WIyWlLk6GJQsqaUBKTNV-1" vertex="1">
          <mxGeometry x="180" y="550" width="80" height="80" as="geometry" />
        </mxCell>
        <mxCell id="6czhflSClIlCwqd6-uIO-19" value="" style="endArrow=classic;html=1;rounded=0;entryX=0;entryY=0.5;entryDx=0;entryDy=0;" parent="WIyWlLk6GJQsqaUBKTNV-1" target="6czhflSClIlCwqd6-uIO-2" edge="1">
          <mxGeometry width="50" height="50" relative="1" as="geometry">
            <mxPoint x="140" y="590" as="sourcePoint" />
            <mxPoint x="130" y="480" as="targetPoint" />
            <Array as="points">
              <mxPoint x="140" y="330" />
            </Array>
          </mxGeometry>
        </mxCell>
        <mxCell id="6czhflSClIlCwqd6-uIO-21" value="" style="endArrow=none;html=1;rounded=0;entryX=0;entryY=0.5;entryDx=0;entryDy=0;" parent="WIyWlLk6GJQsqaUBKTNV-1" target="6czhflSClIlCwqd6-uIO-17" edge="1">
          <mxGeometry width="50" height="50" relative="1" as="geometry">
            <mxPoint x="140" y="590" as="sourcePoint" />
            <mxPoint x="330" y="460" as="targetPoint" />
          </mxGeometry>
        </mxCell>
        <mxCell id="6czhflSClIlCwqd6-uIO-22" value="&lt;font style=&quot;font-size: 12px;&quot;&gt;Add more &lt;br&gt;Columns&amp;nbsp;&lt;br&gt;accordingly&lt;/font&gt;" style="text;html=1;align=center;verticalAlign=middle;resizable=0;points=[];autosize=1;strokeColor=none;fillColor=none;" parent="WIyWlLk6GJQsqaUBKTNV-1" vertex="1">
          <mxGeometry x="60" y="480" width="80" height="60" as="geometry" />
        </mxCell>
        <mxCell id="6czhflSClIlCwqd6-uIO-27" value="" style="edgeStyle=orthogonalEdgeStyle;rounded=0;orthogonalLoop=1;jettySize=auto;html=1;" parent="WIyWlLk6GJQsqaUBKTNV-1" source="6czhflSClIlCwqd6-uIO-23" target="6czhflSClIlCwqd6-uIO-26" edge="1">
          <mxGeometry relative="1" as="geometry" />
        </mxCell>
        <mxCell id="6czhflSClIlCwqd6-uIO-23" value="Save and send&amp;nbsp;&lt;br&gt;the all entries to &lt;br&gt;backend and &lt;br&gt;local database" style="rhombus;whiteSpace=wrap;html=1;fillColor=#fff2cc;strokeColor=#d6b656;" parent="WIyWlLk6GJQsqaUBKTNV-1" vertex="1">
          <mxGeometry x="138.75" y="670" width="162.5" height="140" as="geometry" />
        </mxCell>
        <mxCell id="6czhflSClIlCwqd6-uIO-25" value="save" style="text;html=1;align=center;verticalAlign=middle;resizable=0;points=[];autosize=1;strokeColor=none;fillColor=none;" parent="WIyWlLk6GJQsqaUBKTNV-1" vertex="1">
          <mxGeometry x="215" y="628" width="50" height="30" as="geometry" />
        </mxCell>
        <mxCell id="6czhflSClIlCwqd6-uIO-26" value="Something Went&amp;nbsp;&lt;br&gt;Wrong" style="whiteSpace=wrap;html=1;fillColor=#f8cecc;strokeColor=#b85450;" parent="WIyWlLk6GJQsqaUBKTNV-1" vertex="1">
          <mxGeometry x="350" y="717.5" width="120" height="45" as="geometry" />
        </mxCell>
        <mxCell id="6czhflSClIlCwqd6-uIO-28" value="Success" style="text;html=1;align=center;verticalAlign=middle;resizable=0;points=[];autosize=1;strokeColor=none;fillColor=none;" parent="WIyWlLk6GJQsqaUBKTNV-1" vertex="1">
          <mxGeometry x="220" y="810" width="70" height="30" as="geometry" />
        </mxCell>
        <mxCell id="6czhflSClIlCwqd6-uIO-29" value="Failed" style="text;html=1;align=center;verticalAlign=middle;resizable=0;points=[];autosize=1;strokeColor=none;fillColor=none;" parent="WIyWlLk6GJQsqaUBKTNV-1" vertex="1">
          <mxGeometry x="282.5" y="695" width="60" height="30" as="geometry" />
        </mxCell>
        <mxCell id="6czhflSClIlCwqd6-uIO-34" value="" style="edgeStyle=orthogonalEdgeStyle;rounded=0;orthogonalLoop=1;jettySize=auto;html=1;entryX=0.5;entryY=0;entryDx=0;entryDy=0;" parent="WIyWlLk6GJQsqaUBKTNV-1" source="6czhflSClIlCwqd6-uIO-30" target="6czhflSClIlCwqd6-uIO-35" edge="1">
          <mxGeometry relative="1" as="geometry">
            <mxPoint x="220" y="970" as="targetPoint" />
          </mxGeometry>
        </mxCell>
        <mxCell id="6czhflSClIlCwqd6-uIO-30" value="DATA&lt;br&gt;BASE" style="shape=cylinder3;whiteSpace=wrap;html=1;boundedLbl=1;backgroundOutline=1;size=15;fillColor=#e1d5e7;strokeColor=#9673a6;" parent="WIyWlLk6GJQsqaUBKTNV-1" vertex="1">
          <mxGeometry x="190" y="860" width="60" height="80" as="geometry" />
        </mxCell>
        <mxCell id="6czhflSClIlCwqd6-uIO-31" value="" style="endArrow=classic;html=1;rounded=0;exitX=0.5;exitY=1;exitDx=0;exitDy=0;entryX=0.5;entryY=0;entryDx=0;entryDy=0;entryPerimeter=0;" parent="WIyWlLk6GJQsqaUBKTNV-1" source="6czhflSClIlCwqd6-uIO-23" target="6czhflSClIlCwqd6-uIO-30" edge="1">
          <mxGeometry width="50" height="50" relative="1" as="geometry">
            <mxPoint x="140" y="850" as="sourcePoint" />
            <mxPoint x="190" y="800" as="targetPoint" />
          </mxGeometry>
        </mxCell>
        <mxCell id="6czhflSClIlCwqd6-uIO-32" value="Data inserted &lt;br&gt;Successfully.." style="text;html=1;align=center;verticalAlign=middle;resizable=0;points=[];autosize=1;strokeColor=none;fillColor=none;" parent="WIyWlLk6GJQsqaUBKTNV-1" vertex="1">
          <mxGeometry x="80" y="870" width="100" height="40" as="geometry" />
        </mxCell>
        <mxCell id="6czhflSClIlCwqd6-uIO-38" value="" style="edgeStyle=orthogonalEdgeStyle;rounded=0;orthogonalLoop=1;jettySize=auto;html=1;" parent="WIyWlLk6GJQsqaUBKTNV-1" source="6czhflSClIlCwqd6-uIO-35" target="6czhflSClIlCwqd6-uIO-37" edge="1">
          <mxGeometry relative="1" as="geometry" />
        </mxCell>
        <mxCell id="6czhflSClIlCwqd6-uIO-35" value="Dynamic UI generation&amp;nbsp;" style="whiteSpace=wrap;html=1;fillColor=#d5e8d4;strokeColor=#82b366;" parent="WIyWlLk6GJQsqaUBKTNV-1" vertex="1">
          <mxGeometry x="160" y="1000" width="120" height="50" as="geometry" />
        </mxCell>
        <mxCell id="6czhflSClIlCwqd6-uIO-37" value="Display the UI as&lt;br&gt;&amp;nbsp;form" style="whiteSpace=wrap;html=1;fillColor=#d5e8d4;strokeColor=#82b366;" parent="WIyWlLk6GJQsqaUBKTNV-1" vertex="1">
          <mxGeometry x="-145" y="1100" width="730" height="40" as="geometry" />
        </mxCell>
        <mxCell id="6czhflSClIlCwqd6-uIO-47" value="" style="edgeStyle=orthogonalEdgeStyle;rounded=0;orthogonalLoop=1;jettySize=auto;html=1;entryX=0.5;entryY=0;entryDx=0;entryDy=0;exitX=0.5;exitY=1;exitDx=0;exitDy=0;" parent="WIyWlLk6GJQsqaUBKTNV-1" source="syk1W0FhU0-OYzwC-ugc-0" target="2McJ12Uhhy9NZhE6gNwE-32" edge="1">
          <mxGeometry relative="1" as="geometry">
            <mxPoint x="220" y="1845" as="targetPoint" />
            <mxPoint x="220" y="1755" as="sourcePoint" />
          </mxGeometry>
        </mxCell>
        <mxCell id="6czhflSClIlCwqd6-uIO-50" value="" style="edgeStyle=orthogonalEdgeStyle;rounded=0;orthogonalLoop=1;jettySize=auto;html=1;" parent="WIyWlLk6GJQsqaUBKTNV-1" source="6czhflSClIlCwqd6-uIO-46" target="6czhflSClIlCwqd6-uIO-49" edge="1">
          <mxGeometry relative="1" as="geometry" />
        </mxCell>
        <mxCell id="6czhflSClIlCwqd6-uIO-54" value="" style="edgeStyle=orthogonalEdgeStyle;rounded=0;orthogonalLoop=1;jettySize=auto;html=1;entryX=0.5;entryY=0;entryDx=0;entryDy=0;" parent="WIyWlLk6GJQsqaUBKTNV-1" source="6czhflSClIlCwqd6-uIO-46" target="6czhflSClIlCwqd6-uIO-55" edge="1">
          <mxGeometry relative="1" as="geometry">
            <mxPoint x="220" y="1735" as="targetPoint" />
          </mxGeometry>
        </mxCell>
        <mxCell id="6czhflSClIlCwqd6-uIO-46" value="Save the&amp;nbsp;&lt;br&gt;data in respected&amp;nbsp;&lt;br&gt;Columns" style="rhombus;whiteSpace=wrap;html=1;fillColor=#fff2cc;strokeColor=#d6b656;" parent="WIyWlLk6GJQsqaUBKTNV-1" vertex="1">
          <mxGeometry x="545" y="2190" width="160" height="130" as="geometry" />
        </mxCell>
        <mxCell id="6czhflSClIlCwqd6-uIO-49" value="Something went&lt;br&gt;Wrong" style="whiteSpace=wrap;html=1;fillColor=#f8cecc;strokeColor=#b85450;" parent="WIyWlLk6GJQsqaUBKTNV-1" vertex="1">
          <mxGeometry x="790" y="2231.25" width="120" height="47.5" as="geometry" />
        </mxCell>
        <mxCell id="6czhflSClIlCwqd6-uIO-51" value="Success" style="text;html=1;align=center;verticalAlign=middle;resizable=0;points=[];autosize=1;strokeColor=none;fillColor=none;" parent="WIyWlLk6GJQsqaUBKTNV-1" vertex="1">
          <mxGeometry x="635" y="2370" width="70" height="30" as="geometry" />
        </mxCell>
        <mxCell id="6czhflSClIlCwqd6-uIO-52" value="Failed" style="text;html=1;align=center;verticalAlign=middle;resizable=0;points=[];autosize=1;strokeColor=none;fillColor=none;" parent="WIyWlLk6GJQsqaUBKTNV-1" vertex="1">
          <mxGeometry x="710" y="2220" width="60" height="30" as="geometry" />
        </mxCell>
        <mxCell id="6czhflSClIlCwqd6-uIO-55" value="Created &lt;br&gt;Successfully" style="rounded=1;whiteSpace=wrap;html=1;fillColor=#d5e8d4;strokeColor=#82b366;" parent="WIyWlLk6GJQsqaUBKTNV-1" vertex="1">
          <mxGeometry x="565" y="2420" width="120" height="60" as="geometry" />
        </mxCell>
        <mxCell id="FHPSroYYlghWPFj62SoY-0" value="&lt;font style=&quot;font-size: 9px;&quot;&gt;Here UI &lt;br&gt;name will be &lt;br&gt;the table name&lt;/font&gt;" style="text;html=1;align=center;verticalAlign=middle;resizable=0;points=[];autosize=1;strokeColor=none;fillColor=none;" parent="WIyWlLk6GJQsqaUBKTNV-1" vertex="1">
          <mxGeometry x="40" y="180" width="80" height="60" as="geometry" />
        </mxCell>
        <mxCell id="FHPSroYYlghWPFj62SoY-6" value="" style="swimlane;startSize=0;" parent="WIyWlLk6GJQsqaUBKTNV-1" vertex="1">
          <mxGeometry x="550" y="420" width="180" height="111.25" as="geometry">
            <mxRectangle x="540" y="387.5" width="130" height="45" as="alternateBounds" />
          </mxGeometry>
        </mxCell>
        <mxCell id="FHPSroYYlghWPFj62SoY-4" value="&lt;ul&gt;&lt;li style=&quot;text-align: left;&quot;&gt;Multimedia file&lt;/li&gt;&lt;li style=&quot;text-align: left;&quot;&gt;Real-time Multimedia&lt;/li&gt;&lt;/ul&gt;" style="text;html=1;align=center;verticalAlign=middle;resizable=0;points=[];autosize=1;strokeColor=none;fillColor=none;" parent="FHPSroYYlghWPFj62SoY-6" vertex="1">
          <mxGeometry x="-15" y="12.5" width="180" height="70" as="geometry" />
        </mxCell>
        <mxCell id="FHPSroYYlghWPFj62SoY-3" value="&lt;u&gt;Options for datatype&lt;/u&gt;" style="text;html=1;align=center;verticalAlign=middle;resizable=0;points=[];autosize=1;strokeColor=none;fillColor=none;" parent="FHPSroYYlghWPFj62SoY-6" vertex="1">
          <mxGeometry x="25" width="130" height="30" as="geometry" />
        </mxCell>
        <mxCell id="2McJ12Uhhy9NZhE6gNwE-0" value="according to created &lt;br&gt;entities label&lt;br&gt;&amp;nbsp;and datatype" style="text;html=1;align=center;verticalAlign=middle;resizable=0;points=[];autosize=1;strokeColor=none;fillColor=none;" parent="WIyWlLk6GJQsqaUBKTNV-1" vertex="1">
          <mxGeometry x="30" y="1000" width="130" height="60" as="geometry" />
        </mxCell>
        <mxCell id="2McJ12Uhhy9NZhE6gNwE-1" value="&lt;font style=&quot;font-size: 18px;&quot;&gt;&lt;u&gt;For &quot;Realtime Multimedia&quot; Datatype&lt;/u&gt;&lt;/font&gt;" style="text;html=1;align=center;verticalAlign=middle;resizable=0;points=[];autosize=1;strokeColor=none;fillColor=none;" parent="WIyWlLk6GJQsqaUBKTNV-1" vertex="1">
          <mxGeometry x="65" width="310" height="40" as="geometry" />
        </mxCell>
        <mxCell id="2McJ12Uhhy9NZhE6gNwE-17" value="" style="edgeStyle=orthogonalEdgeStyle;rounded=0;orthogonalLoop=1;jettySize=auto;html=1;exitX=1;exitY=0.5;exitDx=0;exitDy=0;" parent="WIyWlLk6GJQsqaUBKTNV-1" source="2McJ12Uhhy9NZhE6gNwE-15" target="2McJ12Uhhy9NZhE6gNwE-16" edge="1">
          <mxGeometry relative="1" as="geometry">
            <mxPoint x="277.5" y="1405" as="sourcePoint" />
          </mxGeometry>
        </mxCell>
        <mxCell id="2McJ12Uhhy9NZhE6gNwE-15" value="Permission&amp;nbsp;&lt;br&gt;Detection" style="rhombus;whiteSpace=wrap;html=1;fillColor=#fff2cc;strokeColor=#d6b656;" parent="WIyWlLk6GJQsqaUBKTNV-1" vertex="1">
          <mxGeometry x="414" y="1355" width="115" height="100" as="geometry" />
        </mxCell>
        <mxCell id="2McJ12Uhhy9NZhE6gNwE-19" value="" style="edgeStyle=orthogonalEdgeStyle;rounded=0;orthogonalLoop=1;jettySize=auto;html=1;" parent="WIyWlLk6GJQsqaUBKTNV-1" source="2McJ12Uhhy9NZhE6gNwE-16" target="2McJ12Uhhy9NZhE6gNwE-18" edge="1">
          <mxGeometry relative="1" as="geometry" />
        </mxCell>
        <mxCell id="2McJ12Uhhy9NZhE6gNwE-16" value="Alert for &lt;br&gt;Permissions" style="whiteSpace=wrap;html=1;fillColor=#f8cecc;strokeColor=#b85450;" parent="WIyWlLk6GJQsqaUBKTNV-1" vertex="1">
          <mxGeometry x="630" y="1380" width="120" height="50" as="geometry" />
        </mxCell>
        <mxCell id="2McJ12Uhhy9NZhE6gNwE-18" value="Permission&amp;nbsp;&lt;br&gt;Granted" style="whiteSpace=wrap;html=1;fillColor=#d5e8d4;strokeColor=#82b366;" parent="WIyWlLk6GJQsqaUBKTNV-1" vertex="1">
          <mxGeometry x="827" y="1380" width="120" height="50" as="geometry" />
        </mxCell>
        <mxCell id="2McJ12Uhhy9NZhE6gNwE-20" value="Disabled" style="text;html=1;align=center;verticalAlign=middle;resizable=0;points=[];autosize=1;strokeColor=none;fillColor=none;" parent="WIyWlLk6GJQsqaUBKTNV-1" vertex="1">
          <mxGeometry x="550" y="1380" width="70" height="30" as="geometry" />
        </mxCell>
        <mxCell id="2McJ12Uhhy9NZhE6gNwE-21" value="Deny" style="text;html=1;align=center;verticalAlign=middle;resizable=0;points=[];autosize=1;strokeColor=none;fillColor=none;" parent="WIyWlLk6GJQsqaUBKTNV-1" vertex="1">
          <mxGeometry x="560" y="1425" width="50" height="30" as="geometry" />
        </mxCell>
        <mxCell id="2McJ12Uhhy9NZhE6gNwE-22" value="" style="endArrow=classic;html=1;rounded=0;" parent="WIyWlLk6GJQsqaUBKTNV-1" edge="1">
          <mxGeometry width="50" height="50" relative="1" as="geometry">
            <mxPoint x="625" y="1420" as="sourcePoint" />
            <mxPoint x="535" y="1420" as="targetPoint" />
          </mxGeometry>
        </mxCell>
        <mxCell id="2McJ12Uhhy9NZhE6gNwE-23" value="Allow" style="text;html=1;align=center;verticalAlign=middle;resizable=0;points=[];autosize=1;strokeColor=none;fillColor=none;" parent="WIyWlLk6GJQsqaUBKTNV-1" vertex="1">
          <mxGeometry x="770" y="1380" width="50" height="30" as="geometry" />
        </mxCell>
        <mxCell id="2McJ12Uhhy9NZhE6gNwE-24" value="Access phone&#39;s&amp;nbsp;&lt;br&gt;camera" style="whiteSpace=wrap;html=1;fillColor=#d5e8d4;strokeColor=#82b366;" parent="WIyWlLk6GJQsqaUBKTNV-1" vertex="1">
          <mxGeometry x="565" y="1775" width="120" height="60" as="geometry" />
        </mxCell>
        <mxCell id="2McJ12Uhhy9NZhE6gNwE-26" value="" style="endArrow=classic;html=1;rounded=0;entryX=0.5;entryY=0;entryDx=0;entryDy=0;exitX=0.5;exitY=1;exitDx=0;exitDy=0;" parent="WIyWlLk6GJQsqaUBKTNV-1" source="2McJ12Uhhy9NZhE6gNwE-24" target="syk1W0FhU0-OYzwC-ugc-0" edge="1">
          <mxGeometry width="50" height="50" relative="1" as="geometry">
            <mxPoint x="90" y="1645" as="sourcePoint" />
            <mxPoint x="220" y="1635" as="targetPoint" />
          </mxGeometry>
        </mxCell>
        <mxCell id="2McJ12Uhhy9NZhE6gNwE-33" style="edgeStyle=orthogonalEdgeStyle;rounded=0;orthogonalLoop=1;jettySize=auto;html=1;entryX=0.5;entryY=0;entryDx=0;entryDy=0;exitX=0.5;exitY=1;exitDx=0;exitDy=0;" parent="WIyWlLk6GJQsqaUBKTNV-1" source="2McJ12Uhhy9NZhE6gNwE-32" target="6czhflSClIlCwqd6-uIO-46" edge="1">
          <mxGeometry relative="1" as="geometry" />
        </mxCell>
        <mxCell id="2McJ12Uhhy9NZhE6gNwE-32" value="Process and convert&amp;nbsp;&lt;br&gt;file in base64 or &lt;br&gt;bytes" style="rounded=0;whiteSpace=wrap;html=1;fillColor=#d5e8d4;strokeColor=#82b366;" parent="WIyWlLk6GJQsqaUBKTNV-1" vertex="1">
          <mxGeometry x="565" y="2030" width="120" height="60" as="geometry" />
        </mxCell>
        <mxCell id="syk1W0FhU0-OYzwC-ugc-0" value="Click a picture or create a video" style="rounded=0;whiteSpace=wrap;html=1;fillColor=#d5e8d4;strokeColor=#82b366;" vertex="1" parent="WIyWlLk6GJQsqaUBKTNV-1">
          <mxGeometry x="565" y="1895" width="120" height="60" as="geometry" />
        </mxCell>
        <mxCell id="syk1W0FhU0-OYzwC-ugc-4" value="" style="edgeStyle=orthogonalEdgeStyle;rounded=0;orthogonalLoop=1;jettySize=auto;html=1;" edge="1" parent="WIyWlLk6GJQsqaUBKTNV-1" source="syk1W0FhU0-OYzwC-ugc-1" target="syk1W0FhU0-OYzwC-ugc-3">
          <mxGeometry relative="1" as="geometry" />
        </mxCell>
        <mxCell id="syk1W0FhU0-OYzwC-ugc-1" value="Choose&amp;nbsp;&lt;br&gt;Datatypes" style="rhombus;whiteSpace=wrap;html=1;fillColor=#fff2cc;strokeColor=#d6b656;" vertex="1" parent="WIyWlLk6GJQsqaUBKTNV-1">
          <mxGeometry x="165" y="410" width="110" height="110" as="geometry" />
        </mxCell>
        <mxCell id="syk1W0FhU0-OYzwC-ugc-3" value="By default it will be&amp;nbsp;&lt;br&gt;&quot;Multimedia file&quot;" style="whiteSpace=wrap;html=1;fillColor=#f5f5f5;fontColor=#333333;strokeColor=#666666;" vertex="1" parent="WIyWlLk6GJQsqaUBKTNV-1">
          <mxGeometry x="390" y="435" width="120" height="60" as="geometry" />
        </mxCell>
        <mxCell id="syk1W0FhU0-OYzwC-ugc-5" value="Default choice" style="text;html=1;align=center;verticalAlign=middle;resizable=0;points=[];autosize=1;strokeColor=none;fillColor=none;" vertex="1" parent="WIyWlLk6GJQsqaUBKTNV-1">
          <mxGeometry x="270" y="438.75" width="100" height="30" as="geometry" />
        </mxCell>
        <mxCell id="syk1W0FhU0-OYzwC-ugc-6" value="" style="whiteSpace=wrap;html=1;fillColor=#fff2cc;strokeColor=#d6b656;" vertex="1" parent="WIyWlLk6GJQsqaUBKTNV-1">
          <mxGeometry x="560" y="1630" width="120" height="70" as="geometry" />
        </mxCell>
        <mxCell id="syk1W0FhU0-OYzwC-ugc-19" value="" style="edgeStyle=orthogonalEdgeStyle;rounded=0;orthogonalLoop=1;jettySize=auto;html=1;" edge="1" parent="WIyWlLk6GJQsqaUBKTNV-1" source="syk1W0FhU0-OYzwC-ugc-8" target="syk1W0FhU0-OYzwC-ugc-18">
          <mxGeometry relative="1" as="geometry" />
        </mxCell>
        <mxCell id="syk1W0FhU0-OYzwC-ugc-8" value="" style="whiteSpace=wrap;html=1;fillColor=#fff2cc;strokeColor=#d6b656;" vertex="1" parent="WIyWlLk6GJQsqaUBKTNV-1">
          <mxGeometry x="260" y="1635" width="120" height="70" as="geometry" />
        </mxCell>
        <mxCell id="syk1W0FhU0-OYzwC-ugc-10" value="Enabled" style="text;html=1;align=center;verticalAlign=middle;resizable=0;points=[];autosize=1;strokeColor=none;fillColor=none;" vertex="1" parent="WIyWlLk6GJQsqaUBKTNV-1">
          <mxGeometry x="480" y="1465" width="70" height="30" as="geometry" />
        </mxCell>
        <mxCell id="syk1W0FhU0-OYzwC-ugc-12" value="" style="endArrow=none;html=1;rounded=0;entryX=0.5;entryY=1;entryDx=0;entryDy=0;" edge="1" parent="WIyWlLk6GJQsqaUBKTNV-1" target="2McJ12Uhhy9NZhE6gNwE-15">
          <mxGeometry width="50" height="50" relative="1" as="geometry">
            <mxPoint x="472" y="1530" as="sourcePoint" />
            <mxPoint x="220" y="1455" as="targetPoint" />
          </mxGeometry>
        </mxCell>
        <mxCell id="syk1W0FhU0-OYzwC-ugc-13" value="" style="endArrow=classic;startArrow=classic;html=1;rounded=0;entryX=0.5;entryY=0;entryDx=0;entryDy=0;exitX=0.5;exitY=0;exitDx=0;exitDy=0;" edge="1" parent="WIyWlLk6GJQsqaUBKTNV-1" source="syk1W0FhU0-OYzwC-ugc-8" target="syk1W0FhU0-OYzwC-ugc-6">
          <mxGeometry width="50" height="50" relative="1" as="geometry">
            <mxPoint x="340" y="1630" as="sourcePoint" />
            <mxPoint x="290" y="1485" as="targetPoint" />
            <Array as="points">
              <mxPoint x="320" y="1530" />
              <mxPoint x="470" y="1530" />
              <mxPoint x="620" y="1530" />
            </Array>
          </mxGeometry>
        </mxCell>
        <mxCell id="syk1W0FhU0-OYzwC-ugc-15" value="" style="endArrow=classic;html=1;rounded=0;entryX=0.5;entryY=0;entryDx=0;entryDy=0;" edge="1" parent="WIyWlLk6GJQsqaUBKTNV-1" target="2McJ12Uhhy9NZhE6gNwE-24">
          <mxGeometry width="50" height="50" relative="1" as="geometry">
            <mxPoint x="625" y="1700" as="sourcePoint" />
            <mxPoint x="290" y="1785" as="targetPoint" />
          </mxGeometry>
        </mxCell>
        <mxCell id="syk1W0FhU0-OYzwC-ugc-16" value="In Case of &lt;br&gt;&quot;Realtime &lt;br&gt;Multimedia File&quot;" style="text;html=1;align=center;verticalAlign=middle;resizable=0;points=[];autosize=1;strokeColor=#666666;fillColor=#f5f5f5;fontColor=#333333;" vertex="1" parent="WIyWlLk6GJQsqaUBKTNV-1">
          <mxGeometry x="565" y="1635" width="110" height="60" as="geometry" />
        </mxCell>
        <mxCell id="syk1W0FhU0-OYzwC-ugc-23" value="" style="edgeStyle=orthogonalEdgeStyle;rounded=0;orthogonalLoop=1;jettySize=auto;html=1;" edge="1" parent="WIyWlLk6GJQsqaUBKTNV-1" source="syk1W0FhU0-OYzwC-ugc-18" target="syk1W0FhU0-OYzwC-ugc-22">
          <mxGeometry relative="1" as="geometry" />
        </mxCell>
        <mxCell id="syk1W0FhU0-OYzwC-ugc-18" value="Access phone&#39;s&amp;nbsp;&lt;br style=&quot;border-color: var(--border-color);&quot;&gt;File explorer" style="whiteSpace=wrap;html=1;fillColor=#d5e8d4;strokeColor=#82b366;" vertex="1" parent="WIyWlLk6GJQsqaUBKTNV-1">
          <mxGeometry x="260" y="1775" width="120" height="60" as="geometry" />
        </mxCell>
        <mxCell id="syk1W0FhU0-OYzwC-ugc-25" value="" style="edgeStyle=orthogonalEdgeStyle;rounded=0;orthogonalLoop=1;jettySize=auto;html=1;" edge="1" parent="WIyWlLk6GJQsqaUBKTNV-1" source="syk1W0FhU0-OYzwC-ugc-22" target="syk1W0FhU0-OYzwC-ugc-24">
          <mxGeometry relative="1" as="geometry" />
        </mxCell>
        <mxCell id="syk1W0FhU0-OYzwC-ugc-28" style="edgeStyle=orthogonalEdgeStyle;rounded=0;orthogonalLoop=1;jettySize=auto;html=1;entryX=0;entryY=0.5;entryDx=0;entryDy=0;" edge="1" parent="WIyWlLk6GJQsqaUBKTNV-1" source="syk1W0FhU0-OYzwC-ugc-22" target="2McJ12Uhhy9NZhE6gNwE-32">
          <mxGeometry relative="1" as="geometry">
            <mxPoint x="70" y="1965" as="targetPoint" />
            <Array as="points">
              <mxPoint x="320" y="2060" />
            </Array>
          </mxGeometry>
        </mxCell>
        <mxCell id="syk1W0FhU0-OYzwC-ugc-22" value="File &lt;br&gt;Selection" style="rhombus;whiteSpace=wrap;html=1;fillColor=#fff2cc;strokeColor=#d6b656;" vertex="1" parent="WIyWlLk6GJQsqaUBKTNV-1">
          <mxGeometry x="270" y="1907.5" width="100" height="90" as="geometry" />
        </mxCell>
        <mxCell id="syk1W0FhU0-OYzwC-ugc-24" value="Something went wrong" style="whiteSpace=wrap;html=1;fillColor=#f8cecc;strokeColor=#b85450;" vertex="1" parent="WIyWlLk6GJQsqaUBKTNV-1">
          <mxGeometry x="425" y="1925" width="120" height="55" as="geometry" />
        </mxCell>
        <mxCell id="syk1W0FhU0-OYzwC-ugc-26" value="Failed" style="text;html=1;align=center;verticalAlign=middle;resizable=0;points=[];autosize=1;strokeColor=none;fillColor=none;" vertex="1" parent="WIyWlLk6GJQsqaUBKTNV-1">
          <mxGeometry x="354" y="1925" width="60" height="30" as="geometry" />
        </mxCell>
        <mxCell id="syk1W0FhU0-OYzwC-ugc-29" value="Success" style="text;html=1;align=center;verticalAlign=middle;resizable=0;points=[];autosize=1;strokeColor=none;fillColor=none;" vertex="1" parent="WIyWlLk6GJQsqaUBKTNV-1">
          <mxGeometry x="330" y="2015" width="70" height="30" as="geometry" />
        </mxCell>
        <mxCell id="syk1W0FhU0-OYzwC-ugc-30" value="" style="endArrow=none;html=1;rounded=0;entryX=0.5;entryY=1;entryDx=0;entryDy=0;" edge="1" parent="WIyWlLk6GJQsqaUBKTNV-1" target="6czhflSClIlCwqd6-uIO-37">
          <mxGeometry width="50" height="50" relative="1" as="geometry">
            <mxPoint x="220" y="1230" as="sourcePoint" />
            <mxPoint x="210" y="1230" as="targetPoint" />
          </mxGeometry>
        </mxCell>
        <mxCell id="syk1W0FhU0-OYzwC-ugc-31" value="" style="endArrow=classic;html=1;rounded=0;entryX=0.5;entryY=0;entryDx=0;entryDy=0;" edge="1" parent="WIyWlLk6GJQsqaUBKTNV-1" target="2McJ12Uhhy9NZhE6gNwE-15">
          <mxGeometry width="50" height="50" relative="1" as="geometry">
            <mxPoint x="220" y="1230" as="sourcePoint" />
            <mxPoint x="290" y="1340" as="targetPoint" />
            <Array as="points">
              <mxPoint x="470" y="1230" />
            </Array>
          </mxGeometry>
        </mxCell>
        <mxCell id="syk1W0FhU0-OYzwC-ugc-14" value="In Case of &lt;br&gt;&quot;Multimedia &lt;br&gt;File&quot;" style="text;html=1;align=center;verticalAlign=middle;resizable=0;points=[];autosize=1;strokeColor=#666666;fillColor=#f5f5f5;fontColor=#333333;" vertex="1" parent="WIyWlLk6GJQsqaUBKTNV-1">
          <mxGeometry x="280" y="1640" width="90" height="60" as="geometry" />
        </mxCell>
        <mxCell id="syk1W0FhU0-OYzwC-ugc-33" value="In Case of Multimedia Data Type" style="text;html=1;align=center;verticalAlign=middle;resizable=0;points=[];autosize=1;strokeColor=none;fillColor=none;" vertex="1" parent="WIyWlLk6GJQsqaUBKTNV-1">
          <mxGeometry x="240" y="1180" width="200" height="30" as="geometry" />
        </mxCell>
        <mxCell id="syk1W0FhU0-OYzwC-ugc-34" value="" style="endArrow=classic;html=1;rounded=0;entryX=0.5;entryY=0;entryDx=0;entryDy=0;" edge="1" parent="WIyWlLk6GJQsqaUBKTNV-1" target="syk1W0FhU0-OYzwC-ugc-35">
          <mxGeometry width="50" height="50" relative="1" as="geometry">
            <mxPoint x="220" y="1230" as="sourcePoint" />
            <mxPoint x="-70" y="1350" as="targetPoint" />
            <Array as="points">
              <mxPoint x="-70" y="1230" />
            </Array>
          </mxGeometry>
        </mxCell>
        <mxCell id="syk1W0FhU0-OYzwC-ugc-38" value="" style="edgeStyle=orthogonalEdgeStyle;rounded=0;orthogonalLoop=1;jettySize=auto;html=1;" edge="1" parent="WIyWlLk6GJQsqaUBKTNV-1" source="syk1W0FhU0-OYzwC-ugc-35" target="syk1W0FhU0-OYzwC-ugc-37">
          <mxGeometry relative="1" as="geometry" />
        </mxCell>
        <mxCell id="syk1W0FhU0-OYzwC-ugc-40" style="edgeStyle=orthogonalEdgeStyle;rounded=0;orthogonalLoop=1;jettySize=auto;html=1;entryX=0;entryY=0.5;entryDx=0;entryDy=0;" edge="1" parent="WIyWlLk6GJQsqaUBKTNV-1" source="syk1W0FhU0-OYzwC-ugc-35" target="6czhflSClIlCwqd6-uIO-46">
          <mxGeometry relative="1" as="geometry">
            <Array as="points">
              <mxPoint x="-70" y="2255" />
            </Array>
          </mxGeometry>
        </mxCell>
        <mxCell id="syk1W0FhU0-OYzwC-ugc-35" value="Enter the data&lt;br&gt;&amp;nbsp;in form&#39;s field" style="rhombus;whiteSpace=wrap;html=1;fillColor=#fff2cc;strokeColor=#d6b656;" vertex="1" parent="WIyWlLk6GJQsqaUBKTNV-1">
          <mxGeometry x="-140" y="1340" width="140" height="130" as="geometry" />
        </mxCell>
        <mxCell id="syk1W0FhU0-OYzwC-ugc-36" value="In case of Numeric and String Data Type" style="text;html=1;align=center;verticalAlign=middle;resizable=0;points=[];autosize=1;strokeColor=none;fillColor=none;" vertex="1" parent="WIyWlLk6GJQsqaUBKTNV-1">
          <mxGeometry x="-40" y="1180" width="240" height="30" as="geometry" />
        </mxCell>
        <mxCell id="syk1W0FhU0-OYzwC-ugc-37" value="Alert for empty field" style="whiteSpace=wrap;html=1;fillColor=#f8cecc;strokeColor=#b85450;" vertex="1" parent="WIyWlLk6GJQsqaUBKTNV-1">
          <mxGeometry x="90" y="1382.5" width="120" height="45" as="geometry" />
        </mxCell>
        <mxCell id="syk1W0FhU0-OYzwC-ugc-39" value="If Not Entered" style="text;html=1;align=center;verticalAlign=middle;resizable=0;points=[];autosize=1;strokeColor=none;fillColor=none;" vertex="1" parent="WIyWlLk6GJQsqaUBKTNV-1">
          <mxGeometry x="-10" y="1370" width="100" height="30" as="geometry" />
        </mxCell>
        <mxCell id="syk1W0FhU0-OYzwC-ugc-41" value="if Entered" style="text;html=1;align=center;verticalAlign=middle;resizable=0;points=[];autosize=1;strokeColor=none;fillColor=none;" vertex="1" parent="WIyWlLk6GJQsqaUBKTNV-1">
          <mxGeometry x="-50" y="1580" width="70" height="30" as="geometry" />
        </mxCell>
        <mxCell id="syk1W0FhU0-OYzwC-ugc-42" value="" style="endArrow=classic;html=1;rounded=0;entryX=0.5;entryY=0;entryDx=0;entryDy=0;" edge="1" parent="WIyWlLk6GJQsqaUBKTNV-1" target="syk1W0FhU0-OYzwC-ugc-44">
          <mxGeometry width="50" height="50" relative="1" as="geometry">
            <mxPoint x="-70" y="1230" as="sourcePoint" />
            <mxPoint x="-470" y="1340" as="targetPoint" />
            <Array as="points">
              <mxPoint x="-470" y="1230" />
            </Array>
          </mxGeometry>
        </mxCell>
        <mxCell id="syk1W0FhU0-OYzwC-ugc-43" value="in case of date and time data type" style="text;html=1;align=center;verticalAlign=middle;resizable=0;points=[];autosize=1;strokeColor=none;fillColor=none;" vertex="1" parent="WIyWlLk6GJQsqaUBKTNV-1">
          <mxGeometry x="-440" y="1188" width="200" height="30" as="geometry" />
        </mxCell>
        <mxCell id="syk1W0FhU0-OYzwC-ugc-46" value="" style="edgeStyle=orthogonalEdgeStyle;rounded=0;orthogonalLoop=1;jettySize=auto;html=1;entryX=0.5;entryY=0;entryDx=0;entryDy=0;" edge="1" parent="WIyWlLk6GJQsqaUBKTNV-1" source="syk1W0FhU0-OYzwC-ugc-44" target="syk1W0FhU0-OYzwC-ugc-52">
          <mxGeometry relative="1" as="geometry">
            <mxPoint x="-470" y="1505" as="targetPoint" />
          </mxGeometry>
        </mxCell>
        <mxCell id="syk1W0FhU0-OYzwC-ugc-44" value="Open Calendar or clock as requirement" style="rounded=0;whiteSpace=wrap;html=1;fillColor=#d5e8d4;strokeColor=#82b366;" vertex="1" parent="WIyWlLk6GJQsqaUBKTNV-1">
          <mxGeometry x="-530" y="1365" width="120" height="60" as="geometry" />
        </mxCell>
        <mxCell id="syk1W0FhU0-OYzwC-ugc-48" value="" style="edgeStyle=orthogonalEdgeStyle;rounded=0;orthogonalLoop=1;jettySize=auto;html=1;exitX=0.5;exitY=1;exitDx=0;exitDy=0;entryX=0.5;entryY=0;entryDx=0;entryDy=0;" edge="1" parent="WIyWlLk6GJQsqaUBKTNV-1" source="syk1W0FhU0-OYzwC-ugc-52" target="syk1W0FhU0-OYzwC-ugc-56">
          <mxGeometry relative="1" as="geometry">
            <mxPoint x="-470" y="1565" as="sourcePoint" />
            <mxPoint x="-470" y="1680" as="targetPoint" />
          </mxGeometry>
        </mxCell>
        <mxCell id="syk1W0FhU0-OYzwC-ugc-51" value="" style="edgeStyle=orthogonalEdgeStyle;rounded=0;orthogonalLoop=1;jettySize=auto;html=1;exitX=0;exitY=0.5;exitDx=0;exitDy=0;" edge="1" parent="WIyWlLk6GJQsqaUBKTNV-1" source="syk1W0FhU0-OYzwC-ugc-52" target="syk1W0FhU0-OYzwC-ugc-50">
          <mxGeometry relative="1" as="geometry">
            <mxPoint x="-530" y="1535" as="sourcePoint" />
          </mxGeometry>
        </mxCell>
        <mxCell id="syk1W0FhU0-OYzwC-ugc-49" style="edgeStyle=orthogonalEdgeStyle;rounded=0;orthogonalLoop=1;jettySize=auto;html=1;entryX=0.5;entryY=0;entryDx=0;entryDy=0;exitX=0.5;exitY=1;exitDx=0;exitDy=0;" edge="1" parent="WIyWlLk6GJQsqaUBKTNV-1" source="syk1W0FhU0-OYzwC-ugc-56" target="syk1W0FhU0-OYzwC-ugc-55">
          <mxGeometry relative="1" as="geometry">
            <mxPoint x="-470" y="2250" as="targetPoint" />
            <mxPoint x="-470" y="1805" as="sourcePoint" />
            <Array as="points" />
          </mxGeometry>
        </mxCell>
        <mxCell id="syk1W0FhU0-OYzwC-ugc-50" value="Alert for empty field" style="whiteSpace=wrap;html=1;fillColor=#f8cecc;strokeColor=#b85450;rounded=0;" vertex="1" parent="WIyWlLk6GJQsqaUBKTNV-1">
          <mxGeometry x="-750" y="1532.5" width="120" height="60" as="geometry" />
        </mxCell>
        <mxCell id="syk1W0FhU0-OYzwC-ugc-52" value="Select the &lt;br&gt;desired date&lt;br&gt;&amp;nbsp;or time" style="rhombus;whiteSpace=wrap;html=1;fillColor=#fff2cc;strokeColor=#d6b656;" vertex="1" parent="WIyWlLk6GJQsqaUBKTNV-1">
          <mxGeometry x="-530" y="1505" width="120" height="115" as="geometry" />
        </mxCell>
        <mxCell id="syk1W0FhU0-OYzwC-ugc-53" value="if Selected" style="text;html=1;align=center;verticalAlign=middle;resizable=0;points=[];autosize=1;strokeColor=none;fillColor=none;" vertex="1" parent="WIyWlLk6GJQsqaUBKTNV-1">
          <mxGeometry x="-470" y="1630" width="80" height="30" as="geometry" />
        </mxCell>
        <mxCell id="syk1W0FhU0-OYzwC-ugc-54" value="If not selected" style="text;html=1;align=center;verticalAlign=middle;resizable=0;points=[];autosize=1;strokeColor=none;fillColor=none;" vertex="1" parent="WIyWlLk6GJQsqaUBKTNV-1">
          <mxGeometry x="-620" y="1530" width="100" height="30" as="geometry" />
        </mxCell>
        <mxCell id="syk1W0FhU0-OYzwC-ugc-62" style="edgeStyle=orthogonalEdgeStyle;rounded=0;orthogonalLoop=1;jettySize=auto;html=1;entryX=0.5;entryY=0;entryDx=0;entryDy=0;" edge="1" parent="WIyWlLk6GJQsqaUBKTNV-1" source="syk1W0FhU0-OYzwC-ugc-55" target="syk1W0FhU0-OYzwC-ugc-61">
          <mxGeometry relative="1" as="geometry" />
        </mxCell>
        <mxCell id="syk1W0FhU0-OYzwC-ugc-55" value="Save the&amp;nbsp;&lt;br&gt;data in respected&amp;nbsp;&lt;br&gt;Columns" style="rhombus;whiteSpace=wrap;html=1;fillColor=#fff2cc;strokeColor=#d6b656;" vertex="1" parent="WIyWlLk6GJQsqaUBKTNV-1">
          <mxGeometry x="-550" y="1820" width="160" height="130" as="geometry" />
        </mxCell>
        <mxCell id="syk1W0FhU0-OYzwC-ugc-56" value="Date time to String conversion" style="rounded=0;whiteSpace=wrap;html=1;fillColor=#d5e8d4;strokeColor=#82b366;" vertex="1" parent="WIyWlLk6GJQsqaUBKTNV-1">
          <mxGeometry x="-530" y="1694" width="120" height="60" as="geometry" />
        </mxCell>
        <mxCell id="syk1W0FhU0-OYzwC-ugc-57" value="Something went&lt;br&gt;Wrong" style="whiteSpace=wrap;html=1;fillColor=#f8cecc;strokeColor=#b85450;" vertex="1" parent="WIyWlLk6GJQsqaUBKTNV-1">
          <mxGeometry x="-760" y="1861.25" width="120" height="47.5" as="geometry" />
        </mxCell>
        <mxCell id="syk1W0FhU0-OYzwC-ugc-58" value="" style="endArrow=classic;html=1;rounded=0;entryX=1;entryY=0.5;entryDx=0;entryDy=0;exitX=0;exitY=0.5;exitDx=0;exitDy=0;" edge="1" parent="WIyWlLk6GJQsqaUBKTNV-1" source="syk1W0FhU0-OYzwC-ugc-55" target="syk1W0FhU0-OYzwC-ugc-57">
          <mxGeometry width="50" height="50" relative="1" as="geometry">
            <mxPoint x="-660" y="2120" as="sourcePoint" />
            <mxPoint x="-610" y="2070" as="targetPoint" />
          </mxGeometry>
        </mxCell>
        <mxCell id="syk1W0FhU0-OYzwC-ugc-60" value="Failed" style="text;html=1;align=center;verticalAlign=middle;resizable=0;points=[];autosize=1;strokeColor=none;fillColor=none;" vertex="1" parent="WIyWlLk6GJQsqaUBKTNV-1">
          <mxGeometry x="-620" y="1850" width="60" height="30" as="geometry" />
        </mxCell>
        <mxCell id="syk1W0FhU0-OYzwC-ugc-61" value="Created &lt;br&gt;Successfully" style="rounded=1;whiteSpace=wrap;html=1;fillColor=#d5e8d4;strokeColor=#82b366;" vertex="1" parent="WIyWlLk6GJQsqaUBKTNV-1">
          <mxGeometry x="-530" y="2030" width="120" height="60" as="geometry" />
        </mxCell>
        <mxCell id="syk1W0FhU0-OYzwC-ugc-63" value="Success" style="text;html=1;align=center;verticalAlign=middle;resizable=0;points=[];autosize=1;strokeColor=none;fillColor=none;" vertex="1" parent="WIyWlLk6GJQsqaUBKTNV-1">
          <mxGeometry x="-470" y="1978" width="70" height="30" as="geometry" />
        </mxCell>
      </root>
    </mxGraphModel>
  </diagram>
</mxfile>
